<?xml version="1.0" standalone="no"?><!DOCTYPE svg PUBLIC "-//W3C//DTD SVG 1.1//EN" "http://www.w3.org/Graphics/SVG/1.1/DTD/svg11.dtd"><svg t="1482851437128" id="cooperationIcon" style="fill:#fff" viewBox="0 0 1055 1024" version="1.1" xmlns="http://www.w3.org/2000/svg" p-id="10252" xmlns:xlink="http://www.w3.org/1999/xlink" width="206.0546875" height="200" ><defs><style type="text/css"></style></defs><path d="M1.483435 517.973333c3.413333-10.24 11.093333-17.92 20.48-20.48l629.76-170.666667c14.506667-3.413333 29.013333 0.853333 39.253333 12.8 11.093333 11.946667 14.506667 29.866667 9.386667 46.933333-4.266667 15.36-15.36 26.453333-29.013333 29.866667L126.923435 563.2l249.173333 283.306667c52.906667 59.733333 122.88 93.013333 197.973333 93.013333 157.866667 0 294.4-202.24 294.4-202.24 29.013333-48.64 110.933333 2.56 54.613333 58.88 0 0-176.64 227.84-349.013333 227.84-95.573333 0-185.173333-41.813333-251.733333-117.76L8.310101 549.546667C0.630101 541.013333-1.929899 529.066667 1.483435 517.973333z" p-id="10253"></path><path d="M1052.790101 506.88c-3.413333 10.24-11.093333 17.92-20.48 20.48L402.550101 697.173333c-14.506667 3.413333-29.013333-0.853333-39.253333-12.8-11.093333-11.946667-14.506667-29.866667-9.386667-46.933333 4.266667-15.36 15.36-26.453333 29.013333-29.866667L927.350101 460.8 678.176768 177.493333c-52.906667-59.733333-122.88-93.013333-197.973333-93.013333C322.336768 84.48 185.803435 286.72 185.803435 286.72c-29.013333 48.64-110.933333-2.56-54.613333-58.88 0 0 176.64-227.84 349.013333-227.84C575.776768 0 665.376768 41.813333 731.936768 117.76l314.026667 356.693333C1053.643435 482.986667 1056.203435 494.933333 1052.790101 506.88z" p-id="10254"></path></svg>